# Blender v2.79 (sub 0) OBJ File: ''
# www.blender.org
mtllib Pistol.mtl
o Pistola2
v -0.565517 0.185057 0.050000
v -0.565517 0.085057 -0.050000
v -0.565517 0.085057 0.050000
v -0.565517 0.185057 -0.050000
v -0.465517 0.085057 0.050000
v -0.465517 -0.014943 -0.150000
v -0.465517 -0.014943 0.150000
v -0.465517 0.085057 -0.050000
v -0.465517 0.185057 0.050000
v -0.465517 0.185057 -0.050000
v -0.465517 0.285057 0.150000
v -0.465517 0.285057 -0.150000
v -0.365517 0.385057 0.050000
v -0.365517 0.285057 -0.050000
v -0.365517 0.285057 0.050000
v -0.365517 0.385057 -0.050000
v -0.065517 -0.014943 0.050000
v -0.065517 -0.114943 -0.050000
v -0.065517 -0.114943 0.050000
v -0.065517 -0.014943 -0.050000
v 0.034483 -0.114943 0.050000
v 0.034483 -0.214943 -0.050000
v 0.034483 -0.214943 0.050000
v 0.034483 -0.114943 -0.050000
v 0.234483 -0.114943 0.050000
v 0.234483 -0.214943 0.050000
v 0.234483 -0.214943 0.150000
v 0.234483 -0.114943 -0.050000
v 0.234483 -0.214943 -0.150000
v 0.234483 -0.214943 -0.050000
v 0.234483 -0.014943 0.150000
v 0.234483 -0.014943 -0.150000
v 0.334483 -0.214943 0.150000
v 0.334483 -0.414943 -0.150000
v 0.334483 -0.414943 0.150000
v 0.334483 -0.214943 -0.150000
v -0.265517 0.285057 0.050000
v -0.265517 0.285057 -0.050000
v -0.265517 0.385057 0.050000
v -0.265517 0.385057 -0.050000
v 0.034483 -0.114943 0.050000
v 0.034483 -0.114943 -0.050000
v 0.034483 -0.014943 0.050000
v 0.034483 -0.014943 -0.050000
v 0.434483 -0.214943 0.150000
v 0.434483 -0.214943 -0.150000
v 0.434483 -0.014943 0.150000
v 0.434483 -0.014943 -0.150000
v 0.534483 -0.414943 0.150000
v 0.534483 -0.414943 -0.150000
v 0.534483 -0.214943 0.150000
v 0.534483 -0.214943 -0.150000
v 0.534483 -0.014943 0.150000
v 0.534483 -0.014943 -0.150000
v 0.534483 0.285057 0.150000
v 0.534483 0.285057 -0.150000
v -0.365517 0.085057 0.150000
v -0.465517 0.285057 0.150000
v -0.465517 -0.014943 0.150000
v -0.365517 0.185057 0.150000
v -0.165517 0.085057 0.150000
v -0.165517 0.185057 0.150000
v 0.234483 -0.014943 0.150000
v 0.334483 -0.214943 0.150000
v 0.234483 -0.214943 0.150000
v 0.434483 -0.214943 0.150000
v 0.334483 -0.414943 0.150000
v 0.434483 -0.014943 0.150000
v 0.534483 -0.414943 0.150000
v 0.534483 -0.214943 0.150000
v 0.534483 -0.014943 0.150000
v 0.534483 0.285057 0.150000
v -0.465517 0.085057 0.050000
v -0.565517 0.185057 0.050000
v -0.565517 0.085057 0.050000
v -0.465517 0.185057 0.050000
v -0.265517 0.285057 0.050000
v -0.365517 0.385057 0.050000
v -0.365517 0.285057 0.050000
v -0.265517 0.385057 0.050000
v 0.034483 -0.114943 0.050000
v -0.065517 -0.014943 0.050000
v -0.065517 -0.114943 0.050000
v 0.034483 -0.014943 0.050000
v 0.234483 -0.214943 0.050000
v 0.034483 -0.214943 0.050000
v 0.234483 -0.114943 0.050000
v -0.565517 0.085057 -0.050000
v -0.565517 0.185057 -0.050000
v -0.465517 0.085057 -0.050000
v -0.465517 0.185057 -0.050000
v -0.365517 0.285057 -0.050000
v -0.365517 0.385057 -0.050000
v -0.265517 0.285057 -0.050000
v -0.265517 0.385057 -0.050000
v -0.065517 -0.114943 -0.050000
v -0.065517 -0.014943 -0.050000
v 0.034483 -0.114943 -0.050000
v 0.034483 -0.014943 -0.050000
v 0.034483 -0.214943 -0.050000
v 0.234483 -0.214943 -0.050000
v 0.234483 -0.114943 -0.050000
v -0.465517 -0.014943 -0.150000
v -0.465517 0.285057 -0.150000
v -0.365517 0.085057 -0.150000
v -0.365517 0.185057 -0.150000
v -0.165517 0.085057 -0.150000
v -0.165517 0.185057 -0.150000
v 0.234483 -0.014943 -0.150000
v 0.234483 -0.214943 -0.150000
v 0.334483 -0.214943 -0.150000
v 0.434483 -0.214943 -0.150000
v 0.334483 -0.414943 -0.150000
v 0.434483 -0.014943 -0.150000
v 0.534483 -0.414943 -0.150000
v 0.534483 -0.214943 -0.150000
v 0.534483 -0.014943 -0.150000
v 0.534483 0.285057 -0.150000
v 0.334483 -0.414943 -0.150000
v 0.534483 -0.414943 0.150000
v 0.334483 -0.414943 0.150000
v 0.534483 -0.414943 -0.150000
v 0.234483 -0.214943 0.050000
v 0.334483 -0.214943 0.150000
v 0.234483 -0.214943 0.150000
v 0.034483 -0.214943 -0.050000
v 0.034483 -0.214943 0.050000
v 0.234483 -0.214943 -0.050000
v 0.234483 -0.214943 -0.150000
v 0.334483 -0.214943 -0.150000
v -0.065517 -0.114943 -0.050000
v 0.034483 -0.114943 0.050000
v -0.065517 -0.114943 0.050000
v 0.034483 -0.114943 -0.050000
v -0.065517 -0.014943 0.050000
v 0.234483 -0.014943 0.150000
v -0.465517 -0.014943 0.150000
v 0.034483 -0.014943 0.050000
v -0.065517 -0.014943 -0.050000
v 0.034483 -0.014943 -0.050000
v -0.465517 -0.014943 -0.150000
v 0.234483 -0.014943 -0.150000
v 0.434483 -0.014943 -0.150000
v 0.534483 -0.014943 0.150000
v 0.434483 -0.014943 0.150000
v 0.534483 -0.014943 -0.150000
v -0.565517 0.085057 -0.050000
v -0.465517 0.085057 0.050000
v -0.565517 0.085057 0.050000
v -0.465517 0.085057 -0.050000
v 0.434483 -0.214943 0.150000
v 0.534483 -0.214943 0.150000
v 0.434483 -0.214943 -0.150000
v 0.534483 -0.214943 -0.150000
v 0.034483 -0.114943 0.050000
v 0.234483 -0.114943 0.050000
v 0.034483 -0.114943 -0.050000
v 0.234483 -0.114943 -0.050000
v -0.565517 0.185057 0.050000
v -0.465517 0.185057 0.050000
v -0.565517 0.185057 -0.050000
v -0.465517 0.185057 -0.050000
v -0.465517 0.285057 0.150000
v 0.534483 0.285057 0.150000
v -0.365517 0.285057 0.050000
v -0.265517 0.285057 0.050000
v -0.365517 0.285057 -0.050000
v -0.265517 0.285057 -0.050000
v -0.465517 0.285057 -0.150000
v 0.534483 0.285057 -0.150000
v -0.365517 0.385057 0.050000
v -0.265517 0.385057 0.050000
v -0.365517 0.385057 -0.050000
v -0.265517 0.385057 -0.050000
vt 0.990234 0.500000
vt 0.990234 0.500000
vt 0.990234 0.500000
vt 0.990234 0.500000
vt 0.990234 0.500000
vt 0.990234 0.500000
vt 0.990234 0.500000
vt 0.990234 0.500000
vt 0.990234 0.500000
vt 0.990234 0.500000
vt 0.990234 0.500000
vt 0.990234 0.500000
vt 0.990234 0.500000
vt 0.990234 0.500000
vt 0.990234 0.500000
vt 0.990234 0.500000
vt 0.990234 0.500000
vt 0.990234 0.500000
vt 0.990234 0.500000
vt 0.990234 0.500000
vt 0.990234 0.500000
vt 0.990234 0.500000
vt 0.990234 0.500000
vt 0.990234 0.500000
vt 0.060547 0.500000
vt 0.060547 0.500000
vt 0.060547 0.500000
vt 0.060547 0.500000
vt 0.060547 0.500000
vt 0.060547 0.500000
vt 0.060547 0.500000
vt 0.060547 0.500000
vt 0.060547 0.500000
vt 0.060547 0.500000
vt 0.060547 0.500000
vt 0.060547 0.500000
vt 0.990234 0.500000
vt 0.990234 0.500000
vt 0.990234 0.500000
vt 0.990234 0.500000
vt 0.990234 0.500000
vt 0.990234 0.500000
vt 0.990234 0.500000
vt 0.990234 0.500000
vt 0.060547 0.500000
vt 0.060547 0.500000
vt 0.060547 0.500000
vt 0.060547 0.500000
vt 0.060547 0.500000
vt 0.060547 0.500000
vt 0.060547 0.500000
vt 0.060547 0.500000
vt 0.990234 0.500000
vt 0.990234 0.500000
vt 0.990234 0.500000
vt 0.990234 0.500000
vt 0.990234 0.500000
vt 0.990234 0.500000
vt 0.990234 0.500000
vt 0.990234 0.500000
vt 0.990234 0.500000
vt 0.966797 0.500000
vt 0.966797 0.500000
vt 0.966797 0.500000
vt 0.990234 0.500000
vt 0.966797 0.500000
vt 0.990234 0.500000
vt 0.060547 0.500000
vt 0.060547 0.500000
vt 0.060547 0.500000
vt 0.060547 0.500000
vt 0.060547 0.500000
vt 0.990234 0.500000
vt 0.060547 0.500000
vt 0.060547 0.500000
vt 0.060547 0.500000
vt 0.990234 0.500000
vt 0.990234 0.500000
vt 0.990234 0.500000
vt 0.990234 0.500000
vt 0.990234 0.500000
vt 0.990234 0.500000
vt 0.990234 0.500000
vt 0.990234 0.500000
vt 0.990234 0.500000
vt 0.990234 0.500000
vt 0.990234 0.500000
vt 0.990234 0.500000
vt 0.990234 0.500000
vt 0.990234 0.500000
vt 0.990234 0.500000
vt 0.990234 0.500000
vt 0.990234 0.500000
vt 0.990234 0.500000
vt 0.990234 0.500000
vt 0.990234 0.500000
vt 0.990234 0.500000
vt 0.990234 0.500000
vt 0.990234 0.500000
vt 0.990234 0.500000
vt 0.990234 0.500000
vt 0.990234 0.500000
vt 0.990234 0.500000
vt 0.990234 0.500000
vt 0.990234 0.500000
vt 0.990234 0.500000
vt 0.990234 0.500000
vt 0.990234 0.500000
vt 0.990234 0.500000
vt 0.990234 0.500000
vt 0.990234 0.500000
vt 0.990234 0.500000
vt 0.990234 0.500000
vt 0.966797 0.500000
vt 0.966797 0.500000
vt 0.966797 0.500000
vt 0.990234 0.500000
vt 0.966797 0.500000
vt 0.990234 0.500000
vt 0.060547 0.500000
vt 0.060547 0.500000
vt 0.060547 0.500000
vt 0.060547 0.500000
vt 0.060547 0.500000
vt 0.990234 0.500000
vt 0.060547 0.500000
vt 0.060547 0.500000
vt 0.060547 0.500000
vt 0.990234 0.500000
vt 0.990234 0.500000
vt 0.060547 0.500000
vt 0.060547 0.500000
vt 0.060547 0.500000
vt 0.060547 0.500000
vt 0.060547 0.500000
vt 0.060547 0.500000
vt 0.060547 0.500000
vt 0.990234 0.500000
vt 0.990234 0.500000
vt 0.990234 0.500000
vt 0.060547 0.500000
vt 0.990234 0.500000
vt 0.060547 0.500000
vt 0.060547 0.500000
vt 0.990234 0.500000
vt 0.990234 0.500000
vt 0.990234 0.500000
vt 0.990234 0.500000
vt 0.990234 0.500000
vt 0.990234 0.500000
vt 0.990234 0.500000
vt 0.990234 0.500000
vt 0.990234 0.500000
vt 0.990234 0.500000
vt 0.990234 0.500000
vt 0.990234 0.500000
vt 0.990234 0.500000
vt 0.990234 0.500000
vt 0.990234 0.500000
vt 0.990234 0.500000
vt 0.990234 0.500000
vt 0.990234 0.500000
vt 0.990234 0.500000
vt 0.990234 0.500000
vt 0.060547 0.500000
vt 0.060547 0.500000
vt 0.060547 0.500000
vt 0.060547 0.500000
vt 0.990234 0.500000
vt 0.990234 0.500000
vt 0.990234 0.500000
vt 0.990234 0.500000
vt 0.990234 0.500000
vt 0.990234 0.500000
vt 0.990234 0.500000
vt 0.990234 0.500000
vt 0.990234 0.500000
vt 0.990234 0.500000
vt 0.990234 0.500000
vt 0.990234 0.500000
vt 0.990234 0.500000
vt 0.990234 0.500000
vt 0.990234 0.500000
vt 0.990234 0.500000
vt 0.990234 0.500000
vt 0.990234 0.500000
vt 0.990234 0.500000
vt 0.990234 0.500000
vn -1.0000 0.0000 0.0000
vn 1.0000 0.0000 0.0000
vn -0.0000 -0.0000 1.0000
vn 0.0000 0.0000 -1.0000
vn 0.0000 -1.0000 -0.0000
vn 0.0000 1.0000 0.0000
usemtl palette.001
s 1
f 1/1/1 2/2/1 3/3/1
f 4/4/1 2/2/1 1/1/1
f 5/5/1 6/6/1 7/7/1
f 8/8/1 6/6/1 5/5/1
f 9/9/1 5/5/1 7/7/1
f 10/10/1 6/6/1 8/8/1
f 11/11/1 9/9/1 7/7/1
f 11/11/1 10/10/1 9/9/1
f 12/12/1 6/6/1 10/10/1
f 12/12/1 10/10/1 11/11/1
f 13/13/1 14/14/1 15/15/1
f 16/16/1 14/14/1 13/13/1
f 17/17/1 18/18/1 19/19/1
f 20/20/1 18/18/1 17/17/1
f 21/21/1 22/22/1 23/23/1
f 24/24/1 22/22/1 21/21/1
f 25/25/1 26/26/1 27/27/1
f 28/28/1 29/29/1 30/30/1
f 31/31/1 25/25/1 27/27/1
f 31/31/1 28/28/1 25/25/1
f 32/32/1 29/29/1 28/28/1
f 32/32/1 28/28/1 31/31/1
f 33/33/1 34/34/1 35/35/1
f 36/36/1 34/34/1 33/33/1
f 37/37/2 38/38/2 39/39/2
f 39/39/2 38/38/2 40/40/2
f 41/41/2 42/42/2 43/43/2
f 43/43/2 42/42/2 44/44/2
f 45/45/2 46/46/2 47/47/2
f 47/47/2 46/46/2 48/48/2
f 49/49/2 50/50/2 51/51/2
f 51/51/2 50/50/2 52/52/2
f 53/53/2 54/54/2 55/55/2
f 55/55/2 54/54/2 56/56/2
f 57/57/3 58/58/3 59/59/3
f 60/60/3 58/58/3 57/57/3
f 61/61/3 57/57/3 59/59/3
f 61/62/3 60/63/3 57/64/3
f 62/65/3 58/58/3 60/60/3
f 62/66/3 60/63/3 61/62/3
f 63/67/3 61/61/3 59/59/3
f 63/67/3 62/65/3 61/61/3
f 64/68/3 63/69/3 65/70/3
f 66/71/3 63/69/3 64/68/3
f 66/71/3 64/68/3 67/72/3
f 68/73/3 62/65/3 63/67/3
f 68/74/3 63/69/3 66/71/3
f 69/75/3 66/71/3 67/72/3
f 70/76/3 66/71/3 69/75/3
f 71/77/3 62/65/3 68/73/3
f 72/78/3 58/58/3 62/65/3
f 72/78/3 62/65/3 71/77/3
f 73/79/3 74/80/3 75/81/3
f 76/82/3 74/80/3 73/79/3
f 77/83/3 78/84/3 79/85/3
f 80/86/3 78/84/3 77/83/3
f 81/87/3 82/88/3 83/89/3
f 84/90/3 82/88/3 81/87/3
f 85/91/3 81/87/3 86/92/3
f 87/93/3 81/87/3 85/91/3
f 88/94/4 89/95/4 90/96/4
f 90/96/4 89/95/4 91/97/4
f 92/98/4 93/99/4 94/100/4
f 94/100/4 93/99/4 95/101/4
f 96/102/4 97/103/4 98/104/4
f 98/104/4 97/103/4 99/105/4
f 100/106/4 98/104/4 101/107/4
f 101/107/4 98/104/4 102/108/4
f 103/109/4 104/110/4 105/111/4
f 105/111/4 104/110/4 106/112/4
f 103/109/4 105/111/4 107/113/4
f 105/114/4 106/115/4 107/116/4
f 106/112/4 104/110/4 108/117/4
f 107/116/4 106/115/4 108/118/4
f 103/109/4 107/113/4 109/119/4
f 107/113/4 108/117/4 109/119/4
f 110/120/4 109/121/4 111/122/4
f 111/122/4 109/121/4 112/123/4
f 113/124/4 111/122/4 112/123/4
f 109/119/4 108/117/4 114/125/4
f 112/123/4 109/121/4 114/126/4
f 113/124/4 112/123/4 115/127/4
f 115/127/4 112/123/4 116/128/4
f 114/125/4 108/117/4 117/129/4
f 108/117/4 104/110/4 118/130/4
f 117/129/4 108/117/4 118/130/4
f 119/131/5 120/132/5 121/133/5
f 122/134/5 120/132/5 119/131/5
f 123/135/5 124/136/5 125/137/5
f 126/138/5 123/139/5 127/140/5
f 128/141/5 124/136/5 123/135/5
f 128/142/5 123/139/5 126/138/5
f 129/143/5 124/136/5 128/141/5
f 130/144/5 124/136/5 129/143/5
f 131/145/5 132/146/5 133/147/5
f 134/148/5 132/146/5 131/145/5
f 135/149/5 136/150/5 137/151/5
f 138/152/5 136/150/5 135/149/5
f 139/153/5 135/149/5 137/151/5
f 140/154/5 136/150/5 138/152/5
f 141/155/5 139/153/5 137/151/5
f 141/155/5 140/154/5 139/153/5
f 142/156/5 136/150/5 140/154/5
f 142/156/5 140/154/5 141/155/5
f 143/157/5 144/158/5 145/159/5
f 146/160/5 144/158/5 143/157/5
f 147/161/5 148/162/5 149/163/5
f 150/164/5 148/162/5 147/161/5
f 151/165/6 152/166/6 153/167/6
f 153/167/6 152/166/6 154/168/6
f 155/169/6 156/170/6 157/171/6
f 157/171/6 156/170/6 158/172/6
f 159/173/6 160/174/6 161/175/6
f 161/175/6 160/174/6 162/176/6
f 163/177/6 164/178/6 165/179/6
f 165/179/6 164/178/6 166/180/6
f 163/177/6 165/179/6 167/181/6
f 166/180/6 164/178/6 168/182/6
f 163/177/6 167/181/6 169/183/6
f 167/181/6 168/182/6 169/183/6
f 168/182/6 164/178/6 170/184/6
f 169/183/6 168/182/6 170/184/6
f 171/185/6 172/186/6 173/187/6
f 173/187/6 172/186/6 174/188/6
